 <svg
          width="66"
          height="36"
          class="cursor-pointer"
          viewBox="0 0 66 36"
          fill="none"
          xmlns="http://www.w3.org/2000/svg"
        >
          <g filter="url(#filter0_d_955_1545)">
            <path
              d="M2 7C2 3.68629 4.68629 1 8 1H34V33H8C4.68629 33 2 30.3137 2 27V7Z"
              fill="#F6F8F9"
            />
            <path
              d="M8 1.5H33.5V32.5H8C4.96243 32.5 2.5 30.0376 2.5 27V7C2.5 3.96243 4.96243 1.5 8 1.5Z"
              stroke="#DDE2E4"
            />
            <path
              d="M13 10C12.4696 10 11.9609 10.2107 11.5858 10.5858C11.2107 10.9609 11 11.4696 11 12V14C11 14.5304 11.2107 15.0391 11.5858 15.4142C11.9609 15.7893 12.4696 16 13 16H15C15.5304 16 16.0391 15.7893 16.4142 15.4142C16.7893 15.0391 17 14.5304 17 14V12C17 11.4696 16.7893 10.9609 16.4142 10.5858C16.0391 10.2107 15.5304 10 15 10H13ZM13 18C12.4696 18 11.9609 18.2107 11.5858 18.5858C11.2107 18.9609 11 19.4696 11 20V22C11 22.5304 11.2107 23.0391 11.5858 23.4142C11.9609 23.7893 12.4696 24 13 24H15C15.5304 24 16.0391 23.7893 16.4142 23.4142C16.7893 23.0391 17 22.5304 17 22V20C17 19.4696 16.7893 18.9609 16.4142 18.5858C16.0391 18.2107 15.5304 18 15 18H13ZM19 12C19 11.4696 19.2107 10.9609 19.5858 10.5858C19.9609 10.2107 20.4696 10 21 10H23C23.5304 10 24.0391 10.2107 24.4142 10.5858C24.7893 10.9609 25 11.4696 25 12V14C25 14.5304 24.7893 15.0391 24.4142 15.4142C24.0391 15.7893 23.5304 16 23 16H21C20.4696 16 19.9609 15.7893 19.5858 15.4142C19.2107 15.0391 19 14.5304 19 14V12ZM19 20C19 19.4696 19.2107 18.9609 19.5858 18.5858C19.9609 18.2107 20.4696 18 21 18H23C23.5304 18 24.0391 18.2107 24.4142 18.5858C24.7893 18.9609 25 19.4696 25 20V22C25 22.5304 24.7893 23.0391 24.4142 23.4142C24.0391 23.7893 23.5304 24 23 24H21C20.4696 24 19.9609 23.7893 19.5858 23.4142C19.2107 23.0391 19 22.5304 19 22V20Z"
              fill="#B0BABF"
            />
          </g>
          <path
            d="M60 1.5C63.0376 1.5 65.5 3.96243 65.5 7V27C65.5 30.0376 63.0376 32.5 60 32.5H34.5V1.5H60Z"
            fill="#F6F8F9"
          />
          <path
            d="M60 1.5C63.0376 1.5 65.5 3.96243 65.5 7V27C65.5 30.0376 63.0376 32.5 60 32.5H34.5V1.5H60Z"
            stroke="#DDE2E4"
          />
          <path
            fill-rule="evenodd"
            clip-rule="evenodd"
            d="M43 11C43 10.7348 43.1054 10.4804 43.2929 10.2929C43.4804 10.1054 43.7348 10 44 10H56C56.2652 10 56.5196 10.1054 56.7071 10.2929C56.8946 10.4804 57 10.7348 57 11C57 11.2652 56.8946 11.5196 56.7071 11.7071C56.5196 11.8946 56.2652 12 56 12H44C43.7348 12 43.4804 11.8946 43.2929 11.7071C43.1054 11.5196 43 11.2652 43 11ZM43 15C43 14.7348 43.1054 14.4804 43.2929 14.2929C43.4804 14.1054 43.7348 14 44 14H56C56.2652 14 56.5196 14.1054 56.7071 14.2929C56.8946 14.4804 57 14.7348 57 15C57 15.2652 56.8946 15.5196 56.7071 15.7071C56.5196 15.8946 56.2652 16 56 16H44C43.7348 16 43.4804 15.8946 43.2929 15.7071C43.1054 15.5196 43 15.2652 43 15ZM43 19C43 18.7348 43.1054 18.4804 43.2929 18.2929C43.4804 18.1054 43.7348 18 44 18H56C56.2652 18 56.5196 18.1054 56.7071 18.2929C56.8946 18.4804 57 18.7348 57 19C57 19.2652 56.8946 19.5196 56.7071 19.7071C56.5196 19.8946 56.2652 20 56 20H44C43.7348 20 43.4804 19.8946 43.2929 19.7071C43.1054 19.5196 43 19.2652 43 19ZM43 23C43 22.7348 43.1054 22.4804 43.2929 22.2929C43.4804 22.1054 43.7348 22 44 22H56C56.2652 22 56.5196 22.1054 56.7071 22.2929C56.8946 22.4804 57 22.7348 57 23C57 23.2652 56.8946 23.5196 56.7071 23.7071C56.5196 23.8946 56.2652 24 56 24H44C43.7348 24 43.4804 23.8946 43.2929 23.7071C43.1054 23.5196 43 23.2652 43 23Z"
            fill="#007DFA"
          />
          <defs>
            <filter
              id="filter0_d_955_1545"
              x="0"
              y="0"
              width="36"
              height="36"
              filterUnits="userSpaceOnUse"
              color-interpolation-filters="sRGB"
            >
              <feFlood flood-opacity="0" result="BackgroundImageFix" />
              <feColorMatrix
                in="SourceAlpha"
                type="matrix"
                values="0 0 0 0 0 0 0 0 0 0 0 0 0 0 0 0 0 0 127 0"
                result="hardAlpha"
              />
              <feOffset dy="1" />
              <feGaussianBlur stdDeviation="1" />
              <feComposite in2="hardAlpha" operator="out" />
              <feColorMatrix
                type="matrix"
                values="0 0 0 0 0.0627451 0 0 0 0 0.0941176 0 0 0 0 0.156863 0 0 0 0.05 0"
              />
              <feBlend
                mode="normal"
                in2="BackgroundImageFix"
                result="effect1_dropShadow_955_1545"
              />
              <feBlend
                mode="normal"
                in="SourceGraphic"
                in2="effect1_dropShadow_955_1545"
                result="shape"
              />
            </filter>
          </defs>
        </svg>