 <svg
                  width="24"
                  height="24"
                  viewBox="0 0 20 20"
                  fill="none"
                  xmlns="http://www.w3.org/2000/svg"
                >
                  <path
                    fill-rule="evenodd"
                    clip-rule="evenodd"
                    d="M3.33337 6.66675C2.87314 6.66675 2.50004 7.03984 2.50004 7.50008V15.8334C2.50004 16.2937 2.87314 16.6667 3.33337 16.6667H16.6667C17.1269 16.6667 17.5 16.2937 17.5 15.8334V7.50008C17.5 7.03984 17.1269 6.66675 16.6667 6.66675H3.33337ZM0.833374 7.50008C0.833374 6.11937 1.95266 5.00008 3.33337 5.00008H16.6667C18.0474 5.00008 19.1667 6.11937 19.1667 7.50008V15.8334C19.1667 17.2141 18.0474 18.3334 16.6667 18.3334H3.33337C1.95266 18.3334 0.833374 17.2141 0.833374 15.8334V7.50008Z"
                    fill="white"
                  />
                  <path
                    fill-rule="evenodd"
                    clip-rule="evenodd"
                    d="M6.56561 2.39898C7.03445 1.93014 7.67033 1.66675 8.33337 1.66675H11.6667C12.3297 1.66675 12.9656 1.93014 13.4345 2.39898C13.9033 2.86782 14.1667 3.50371 14.1667 4.16675V17.5001C14.1667 17.9603 13.7936 18.3334 13.3334 18.3334C12.8731 18.3334 12.5 17.9603 12.5 17.5001V4.16675C12.5 3.94573 12.4122 3.73377 12.256 3.57749C12.0997 3.42121 11.8877 3.33341 11.6667 3.33341H8.33337C8.11236 3.33341 7.9004 3.42121 7.74412 3.57749C7.58784 3.73377 7.50004 3.94573 7.50004 4.16675V17.5001C7.50004 17.9603 7.12694 18.3334 6.66671 18.3334C6.20647 18.3334 5.83337 17.9603 5.83337 17.5001V4.16675C5.83337 3.50371 6.09677 2.86782 6.56561 2.39898Z"
                    fill="white"
                  />
                </svg>