  <svg
        width="20"
        height="20"
        viewBox="0 0 20 20"
        fill="none"
        xmlns="http://www.w3.org/2000/svg"
      >
        <g id="Iconly/Bold/Category">
          <g id="stack-bold-svgrepo-com 1">
            <path
              id="Vector"
              d="M17.4788 12.9499C17.5346 13.0456 17.5711 13.1513 17.586 13.2611C17.601 13.3709 17.5942 13.4826 17.566 13.5897C17.5378 13.6969 17.4887 13.7974 17.4217 13.8856C17.3546 13.9738 17.2708 14.048 17.1751 14.1038L10.4251 18.0413C10.2961 18.1166 10.1494 18.1562 10 18.1562C9.85061 18.1562 9.7039 18.1166 9.57486 18.0413L2.82486 14.1038C2.63172 13.991 2.49128 13.8061 2.43442 13.5897C2.37756 13.3734 2.40894 13.1433 2.52165 12.9501C2.63435 12.7569 2.81917 12.6164 3.03547 12.5594C3.25177 12.5024 3.48185 12.5336 3.67514 12.6462L10 16.3357L16.3249 12.6462C16.5182 12.5335 16.7483 12.5021 16.9647 12.5591C17.1811 12.616 17.366 12.7566 17.4788 12.9499ZM16.3249 9.27119L10 12.9607L3.67514 9.27119C3.48185 9.15861 3.25177 9.12737 3.03547 9.18437C2.81917 9.24136 2.63435 9.38191 2.52165 9.57512C2.40894 9.76834 2.37756 9.9984 2.43442 10.2147C2.49128 10.4311 2.63172 10.616 2.82486 10.7288L9.57486 14.6663C9.7039 14.7416 9.85061 14.7812 10 14.7812C10.1494 14.7812 10.2961 14.7416 10.4251 14.6663L17.1751 10.7288C17.2709 10.673 17.3548 10.5989 17.4219 10.5107C17.489 10.4225 17.5381 10.3219 17.5663 10.2147C17.5946 10.1075 17.6014 9.99582 17.5865 9.88599C17.5715 9.77616 17.5351 9.67034 17.4793 9.5746C17.4234 9.47885 17.3492 9.39505 17.261 9.32798C17.1727 9.26091 17.0721 9.21188 16.9649 9.18371C16.8577 9.15553 16.746 9.14876 16.6362 9.16377C16.5264 9.17878 16.4206 9.21528 16.3249 9.27119ZM2.40625 6.625C2.40624 6.47753 2.44489 6.33263 2.51834 6.20476C2.59179 6.07688 2.69748 5.97049 2.82486 5.89619L9.57486 1.9587C9.7039 1.88342 9.85061 1.84375 10 1.84375C10.1494 1.84375 10.2961 1.88342 10.4251 1.9587L17.1751 5.89619C17.3025 5.9705 17.4082 6.07689 17.4816 6.20476C17.5551 6.33264 17.5938 6.47753 17.5938 6.625C17.5938 6.77247 17.5551 6.91736 17.4816 7.04524C17.4082 7.17311 17.3025 7.2795 17.1751 7.3538L10.4251 11.2913C10.2961 11.3666 10.1494 11.4062 10 11.4062C9.85061 11.4062 9.7039 11.3666 9.57486 11.2913L2.82486 7.3538C2.69748 7.27951 2.59179 7.17312 2.51834 7.04524C2.44489 6.91736 2.40624 6.77247 2.40625 6.625ZM4.92452 6.625L10 9.58568L15.0755 6.625L10 3.66432L4.92452 6.625Z"
              fill="#0C83FA"
            />
          </g>
        </g>
      </svg>