  <svg
            width="16"
            height="16"
            viewBox="0 0 16 16"
            fill="none"
            xmlns="http://www.w3.org/2000/svg"
          >
            <path
              d="M12.5684 12.5957C12.6632 12.5016 12.8124 12.5016 12.9072 12.5957L12.9258 12.6133L12.9463 12.6299L14.8623 14.1768L14.9209 14.2236C15.045 14.4193 15.0225 14.6837 14.8535 14.8545C14.6634 15.0465 14.3592 15.0479 14.167 14.8594L12.5918 13.0547H12.5928L12.5898 13.0518L12.5449 13.002C12.5041 12.9486 12.4805 12.8821 12.4805 12.8125C12.4805 12.7303 12.513 12.6527 12.5684 12.5957ZM6.93359 1C8.50528 1.0001 10.0139 1.6309 11.127 2.75586C12.2402 3.88113 12.8662 5.40927 12.8662 7.00293C12.866 10.3227 10.2051 13.0047 6.93359 13.0049C3.66195 13.0049 1.00026 10.3228 1 7.00293C1 3.68281 3.66179 1 6.93359 1Z"
              stroke="#6E6F72"
            />
          </svg>