  <svg
        width="27"
        height="7"
        viewBox="0 0 27 7"
        fill="none"
        class="cursor-pointer"
        xmlns="http://www.w3.org/2000/svg"
      >
        <path
          d="M20.25 3.5C20.25 5.425 21.7687 7 23.625 7C25.4812 7 27 5.425 27 3.5C27 1.575 25.4813 -6.63867e-08 23.625 -1.47526e-07C21.7688 -2.28665e-07 20.25 1.575 20.25 3.5ZM16.875 3.5C16.875 1.575 15.3562 -5.08964e-07 13.5 -5.90104e-07C11.6438 -6.71243e-07 10.125 1.575 10.125 3.5C10.125 5.425 11.6437 7 13.5 7C15.3562 7 16.875 5.425 16.875 3.5ZM6.75 3.5C6.75 1.575 5.23125 -9.51542e-07 3.375 -1.03268e-06C1.51875 -1.11382e-06 -6.88454e-08 1.575 -1.5299e-07 3.5C-2.37134e-07 5.425 1.51875 7 3.375 7C5.23125 7 6.75 5.425 6.75 3.5Z"
          fill="#3A3541"
          fill-opacity="0.54"
        />
      </svg>